<svg xmlns="http://www.w3.org/2000/svg" width="69" height="65" viewBox="0 0 69 65" fill="none"><path d="M34.6963 46.1695V29.5808H44.116V33.002H38.2409V35.9995H43.2723V39.3975H38.2409V42.6806H44.2009V46.1704H34.6971L34.6963 46.1695Z" fill="white"></path><path d="M45.6881 46.1696V44.8312L51.2151 37.6468L51.2571 37.5893C52.2835 36.2698 52.7971 35.2477 52.7971 34.5232C52.7971 33.9358 52.6161 33.4531 52.2535 33.0758C51.8916 32.6986 51.4218 32.5091 50.8456 32.5091C50.3251 32.5091 49.8749 32.6943 49.4951 33.0638C49.1153 33.4342 48.8623 33.935 48.7354 34.5686L45.8133 33.0012C46.2566 31.7425 46.9331 30.7685 47.8437 30.0783C48.7543 29.388 49.8218 29.0425 51.0453 29.0425C52.515 29.0425 53.7488 29.5458 54.7477 30.5524C55.7458 31.559 56.2456 32.8143 56.2456 34.3165C56.2456 35.2391 56.0201 36.1952 55.57 37.1821C55.1198 38.1698 54.4236 39.2279 53.4813 40.3571L51.4766 42.7708H56.9616L56.4446 46.1688H45.6855L45.6881 46.1696Z" fill="#00C0FF"></path><path d="M59.4961 46.1695V29.5808H68.9158V33.002H63.0407V35.9995H68.0721V39.3975H63.0407V42.6806H69.0007V46.1704H59.497L59.4961 46.1695Z" fill="white"></path><path d="M36.6111 48.6354H35.9955V50.5234H35.7185V48.6354H35.1055V48.3901H36.6103V48.6354H36.6111Z" fill="white"></path><path d="M38.8669 49.268C38.8215 49.2354 38.7598 49.22 38.6809 49.22C38.5763 49.22 38.4897 49.2688 38.4219 49.3666C38.3542 49.4643 38.3199 49.5929 38.3199 49.7524V50.5233H38.0498V49.0005H38.3199V49.31H38.325C38.4022 49.0862 38.5351 48.9739 38.7246 48.9739C38.7863 48.9739 38.8335 48.9807 38.8661 48.9945V49.2671L38.8669 49.268Z" fill="white"></path><path d="M41.7374 49.8305H40.6716C40.6759 49.9925 40.7205 50.1186 40.8054 50.2069C40.8894 50.2952 41.0077 50.3398 41.1595 50.3398C41.3301 50.3398 41.487 50.2849 41.6293 50.176V50.417C41.4956 50.5113 41.3181 50.5584 41.0969 50.5584C40.8757 50.5584 40.7042 50.489 40.5807 50.3492C40.4572 50.2095 40.3955 50.0157 40.3955 49.7679C40.3955 49.5347 40.4632 49.3426 40.5987 49.1908C40.7342 49.0391 40.9022 48.9636 41.1037 48.9636C41.3052 48.9636 41.4587 49.0279 41.5702 49.1557C41.6825 49.2834 41.7382 49.4626 41.7382 49.6933V49.8296L41.7374 49.8305ZM41.4673 49.6144C41.4664 49.4764 41.4339 49.37 41.3695 49.2946C41.3052 49.2191 41.2152 49.1814 41.0986 49.1814C40.9914 49.1814 40.898 49.2217 40.8199 49.3015C40.7419 49.3812 40.6922 49.4858 40.6716 49.6144H41.4673Z" fill="white"></path><path d="M43.4746 48.464C43.4746 48.4159 43.4909 48.3765 43.5235 48.3431C43.5561 48.3105 43.5964 48.2942 43.6444 48.2942C43.6924 48.2942 43.7344 48.3105 43.7679 48.3422C43.8013 48.3748 43.8184 48.4151 43.8184 48.4631C43.8184 48.5111 43.8013 48.5506 43.7679 48.5823C43.7344 48.614 43.6933 48.6294 43.6444 48.6294C43.5955 48.6294 43.5552 48.614 43.5235 48.5823C43.4918 48.5506 43.4755 48.5111 43.4755 48.4631L43.4746 48.464ZM43.5063 50.5244V49.0016H43.7764V50.5244H43.5063Z" fill="white"></path><path d="M46.9558 50.5233H46.6875V49.6573C46.6875 49.3443 46.5734 49.1874 46.3445 49.1874C46.2262 49.1874 46.1284 49.2311 46.0521 49.3195C45.9758 49.4078 45.9381 49.5192 45.9381 49.6539V50.5224H45.668V48.9996H45.9381V49.2517H45.9432C46.0581 49.0597 46.2244 48.9636 46.4431 48.9636C46.6103 48.9636 46.7372 49.0168 46.8246 49.124C46.9121 49.2311 46.9558 49.3872 46.9558 49.5913V50.5224V50.5233Z" fill="white"></path><path d="M48.8522 49.1068C49.004 49.0125 49.1789 48.9653 49.3769 48.9653C49.7439 48.9653 49.9274 49.1583 49.9274 49.5441V50.5241H49.6599V50.2883H49.653C49.5476 50.4693 49.3915 50.5593 49.1857 50.5593C49.0383 50.5593 48.9208 50.519 48.8333 50.4393C48.7459 50.3595 48.7021 50.2515 48.7021 50.116C48.7021 49.8313 48.8702 49.6659 49.2072 49.6187L49.659 49.5552C49.659 49.3066 49.5561 49.1823 49.3504 49.1823C49.1677 49.1823 49.0014 49.244 48.8505 49.3666V49.106L48.8522 49.1068ZM49.3041 49.8073C49.1789 49.8236 49.0931 49.8553 49.046 49.9008C48.9988 49.9471 48.9748 50.0105 48.9748 50.0937C48.9748 50.1666 49.0005 50.2258 49.052 50.2712C49.1034 50.3175 49.1712 50.3398 49.256 50.3398C49.3735 50.3398 49.4704 50.2986 49.5467 50.2155C49.623 50.1332 49.6608 50.0294 49.6608 49.9042V49.7585L49.3041 49.8065V49.8073Z" fill="white"></path><path d="M53.9765 50.5233H53.7064V49.6487C53.7064 49.4832 53.6807 49.3649 53.6292 49.2937C53.5778 49.2226 53.4938 49.1874 53.3755 49.1874C53.276 49.1874 53.1911 49.2337 53.1208 49.3263C53.0505 49.4189 53.0145 49.5287 53.0145 49.6556V50.5233H52.7444V49.6213C52.7444 49.3323 52.6329 49.1874 52.41 49.1874C52.3071 49.1874 52.2222 49.2311 52.1545 49.3195C52.0867 49.4078 52.0533 49.5201 52.0533 49.6564V50.5224H51.7832V48.9996H52.0533V49.2406H52.0584C52.1665 49.0562 52.3251 48.9636 52.5335 48.9636C52.6355 48.9636 52.7255 48.9919 52.8035 49.0477C52.8816 49.1034 52.9356 49.1797 52.9656 49.2749C53.0788 49.0674 53.2477 48.9636 53.4723 48.9636C53.8076 48.9636 53.9748 49.1703 53.9748 49.5835V50.5224L53.9765 50.5233Z" fill="white"></path><path d="M57.0783 49.8305H56.0125C56.0168 49.9925 56.0614 50.1186 56.1463 50.2069C56.2312 50.2952 56.3487 50.3398 56.5004 50.3398C56.671 50.3398 56.828 50.2849 56.9703 50.176V50.417C56.8365 50.5113 56.659 50.5584 56.4378 50.5584C56.2166 50.5584 56.046 50.489 55.9225 50.3492C55.799 50.2095 55.7373 50.0157 55.7373 49.7679C55.7373 49.5347 55.805 49.3426 55.9405 49.1908C56.076 49.0391 56.244 48.9636 56.4447 48.9636C56.6453 48.9636 56.7997 49.0279 56.912 49.1557C57.0243 49.2834 57.08 49.4626 57.08 49.6933V49.8296L57.0783 49.8305ZM56.8082 49.6144C56.8082 49.4764 56.7748 49.37 56.7105 49.2946C56.6462 49.2191 56.5562 49.1814 56.4395 49.1814C56.3324 49.1814 56.2389 49.2217 56.1609 49.3015C56.0828 49.3812 56.0331 49.4858 56.0134 49.6144H56.8091H56.8082Z" fill="white"></path><path d="M60.1355 50.5233H59.8671V49.6573C59.8671 49.3443 59.7531 49.1874 59.5242 49.1874C59.4058 49.1874 59.3081 49.2311 59.2318 49.3195C59.1555 49.4078 59.1177 49.5192 59.1177 49.6539V50.5224H58.8477V48.9996H59.1177V49.2517H59.1229C59.2378 49.0597 59.4041 48.9636 59.6228 48.9636C59.79 48.9636 59.9169 49.0168 60.0043 49.124C60.0918 49.2311 60.1355 49.3872 60.1355 49.5913V50.5224V50.5233Z" fill="white"></path><path d="M62.7272 50.5088C62.6681 50.5414 62.5892 50.5568 62.4889 50.5568C62.2162 50.5568 62.0799 50.4059 62.0799 50.1041V49.2244H61.8184V49.0014H62.0799V48.6353L62.3483 48.5496V49.0014H62.7272V49.2244H62.3483V50.0561C62.3483 50.1564 62.3654 50.2276 62.3988 50.2713C62.4323 50.315 62.4889 50.3356 62.5678 50.3356C62.6286 50.3356 62.6809 50.3184 62.7264 50.285V50.5096L62.7272 50.5088Z" fill="white"></path><path d="M64.3311 49.7783C64.3311 49.5271 64.4014 49.3281 64.542 49.1824C64.6826 49.0366 64.8729 48.9646 65.1139 48.9646C65.3548 48.9646 65.522 49.0349 65.6515 49.1747C65.781 49.3144 65.8461 49.5082 65.8461 49.7552C65.8461 50.0021 65.7767 50.1899 65.6386 50.3373C65.4997 50.4848 65.3137 50.5594 65.0804 50.5594C64.8472 50.5594 64.6706 50.4874 64.5351 50.3442C64.3996 50.201 64.3311 50.0124 64.3311 49.7783ZM64.6063 49.7697C64.6063 49.9455 64.6509 50.0835 64.7392 50.1839C64.8275 50.285 64.9467 50.3356 65.0967 50.3356C65.2468 50.3356 65.3685 50.2859 65.4491 50.1873C65.5297 50.0887 65.57 49.9472 65.57 49.7629C65.57 49.5785 65.5297 49.4353 65.4491 49.3359C65.3685 49.2364 65.2511 49.1875 65.0967 49.1875C64.9424 49.1875 64.8258 49.239 64.7383 49.3427C64.6509 49.4465 64.6071 49.5888 64.6071 49.7697H64.6063Z" fill="white"></path><path d="M67.5508 50.194C67.6863 50.2926 67.8329 50.3415 67.9898 50.3415C68.1999 50.3415 68.3053 50.2729 68.3053 50.1349C68.3053 50.0766 68.2822 50.0277 68.2367 49.99C68.1904 49.9522 68.0978 49.9068 67.9572 49.8545C67.7883 49.7867 67.6785 49.719 67.6279 49.653C67.5774 49.5861 67.5525 49.5055 67.5525 49.4112C67.5525 49.2766 67.6099 49.1685 67.724 49.0871C67.838 49.0056 67.9786 48.9653 68.1458 48.9653C68.2753 48.9653 68.3953 48.9876 68.5068 49.0331V49.2937C68.3928 49.22 68.2642 49.1831 68.1201 49.1831C68.0335 49.1831 67.9632 49.202 67.9092 49.2397C67.8552 49.2774 67.8277 49.3272 67.8277 49.388C67.8277 49.4489 67.8474 49.4961 67.886 49.5295C67.9255 49.5638 68.0112 49.6075 68.1458 49.6607C68.3156 49.7242 68.4305 49.7893 68.4905 49.8579C68.5505 49.9257 68.5797 50.0097 68.5797 50.11C68.5797 50.2498 68.5222 50.3595 68.4082 50.4401C68.2942 50.5207 68.1458 50.561 67.9641 50.561C67.8063 50.561 67.6682 50.531 67.5508 50.4718V50.1966V50.194Z" fill="white"></path><path d="M35.5903 60.2854C29.3507 62.1049 23.0992 60.3034 17.165 56.4647C6.74118 49.7202 4.46385 36.6692 10.2738 25.9273C16.3984 14.605 30.0307 11.4351 41.0538 18.0639C43.3448 19.4418 45.3118 21.1523 46.9315 23.0961C49.3057 25.9462 53.0458 27.2684 56.6462 26.3715L56.9523 26.2952C60.9899 25.2903 62.9851 20.7545 61.0233 17.0847C58.2007 11.8038 53.8767 7.23281 48.2262 4.07576C33.2066 -4.31505 13.983 0.656325 4.89942 15.2678C-4.67721 30.6715 0.233292 50.8768 15.7228 60.1911C22.2504 64.1164 29.6045 65.472 36.6123 64.5563C37.853 64.3942 38.6984 63.217 38.4489 61.9908C38.1848 60.6901 36.8644 59.9133 35.5903 60.2854Z" fill="url(#paint0_linear_1_4785)"></path><path style="mix-blend-mode:multiply" opacity="0.6" d="M35.5903 60.2854C29.3507 62.1049 23.0992 60.3034 17.165 56.4647C6.74118 49.7202 4.46385 36.6692 10.2738 25.9273C16.3984 14.605 30.0307 11.4351 41.0538 18.0639C43.3448 19.4418 45.3118 21.1523 46.9315 23.0961C49.3057 25.9462 53.0458 27.2684 56.6462 26.3715L56.9523 26.2952C60.9899 25.2903 62.9851 20.7545 61.0233 17.0847C58.2007 11.8038 53.8767 7.23281 48.2262 4.07576C33.2066 -4.31505 13.983 0.656325 4.89942 15.2678C-4.67721 30.6715 0.233292 50.8768 15.7228 60.1911C22.2504 64.1164 29.6045 65.472 36.6123 64.5563C37.853 64.3942 38.6984 63.217 38.4489 61.9908C38.1848 60.6901 36.8644 59.9133 35.5903 60.2854Z" fill="url(#paint1_linear_1_4785)"></path><path d="M9.12055 26.0746C15.8342 15.0909 30.0315 11.4348 41.0547 18.0628C43.3457 19.4407 45.3127 21.1512 46.9323 23.095C49.3066 25.9451 53.0467 27.2673 56.647 26.3704L56.9531 26.2941C60.9908 25.2892 62.986 20.7534 61.0242 17.0836C58.2015 11.8027 53.8775 7.23172 48.2271 4.07467C33.2066 -4.31528 13.983 0.656095 4.89942 15.2676C-4.67721 30.6713 0.233292 50.8766 15.7228 60.1909C20.0493 62.7923 24.7386 64.2585 29.4493 64.6898C2.16679 59.775 3.91767 34.5863 9.12055 26.0746Z" fill="url(#paint2_linear_1_4785)"></path><path style="mix-blend-mode:multiply" opacity="0.6" d="M9.12055 26.0746C15.8342 15.0909 30.0315 11.4348 41.0547 18.0628C43.3457 19.4407 45.3127 21.1512 46.9323 23.095C49.3066 25.9451 53.0467 27.2673 56.647 26.3704L56.9531 26.2941C60.9908 25.2892 62.986 20.7534 61.0242 17.0836C58.2015 11.8027 53.8775 7.23172 48.2271 4.07467C33.2066 -4.31528 13.983 0.656095 4.89942 15.2676C-4.67721 30.6713 0.233292 50.8766 15.7228 60.1909C20.0493 62.7923 24.7386 64.2585 29.4493 64.6898C2.16679 59.775 3.91767 34.5863 9.12055 26.0746Z" fill="url(#paint3_linear_1_4785)"></path><path d="M24.3094 10.2964C37.8148 9.85826 44.2001 17.6257 47.5175 22.7128C49.5436 25.8202 53.0436 27.2675 56.6439 26.3715L56.9501 26.2952C60.9877 25.2903 62.9829 20.7545 61.0211 17.0847C58.1985 11.8038 53.8744 7.23281 48.224 4.07575C33.2044 -4.31505 13.9817 0.656325 4.89722 15.2678C1.35346 20.9688 -0.201916 27.3267 0.0244456 33.5473C-0.233641 20.1397 10.8015 10.7346 24.3094 10.2964Z" fill="url(#paint4_linear_1_4785)"></path><path d="M56.951 25.0932L56.6449 25.1695C53.0454 26.0655 49.5454 24.619 47.5184 21.5109C44.201 16.4246 37.8157 8.65627 24.3103 9.09442C10.8015 9.53256 -0.233578 18.9377 0.0245088 32.3453C0.0176493 32.1524 0.0176493 31.9586 0.0142196 31.7649C0.00307302 32.3599 0.00307302 32.9541 0.0245088 33.5475C-0.233578 20.1398 10.8015 10.7347 24.3095 10.2965C37.8149 9.85839 44.2001 17.6258 47.5175 22.713C49.5436 25.8203 53.0437 27.2676 56.644 26.3716L56.9501 26.2953C60.1286 25.5039 62.0398 22.5243 61.7526 19.501C61.5074 22.0776 59.705 24.4073 56.9501 25.0923L56.951 25.0932Z" fill="url(#paint5_linear_1_4785)"></path><path d="M44.946 60.5125C44.946 61.8073 43.8965 62.8576 42.6009 62.8576C41.3054 62.8576 40.2559 61.8081 40.2559 60.5125C40.2559 59.217 41.3054 58.1675 42.6009 58.1675C43.8965 58.1675 44.946 59.217 44.946 60.5125Z" fill="url(#paint6_linear_1_4785)"></path><path d="M35.5897 60.2854C29.3502 62.1057 23.0987 60.3034 17.1644 56.4647C10.5656 52.1956 7.23621 45.3979 7.15132 38.2598C6.98669 45.6885 10.3187 52.8378 17.1644 57.2673C23.0987 61.1068 29.3502 62.9083 35.5897 61.088C36.8638 60.7167 38.1843 61.4935 38.4484 62.7934C38.4501 62.802 38.4509 62.8105 38.4518 62.8191C38.5024 62.5533 38.5058 62.2738 38.4484 61.9908C38.1843 60.6901 36.8638 59.9133 35.5897 60.2854Z" fill="url(#paint7_linear_1_4785)"></path><path d="M49.8128 57.5973C49.8128 58.5439 49.0454 59.3113 48.0988 59.3113C47.1522 59.3113 46.3848 58.5439 46.3848 57.5973C46.3848 56.6507 47.1522 55.8833 48.0988 55.8833C49.0454 55.8833 49.8128 56.6507 49.8128 57.5973Z" fill="url(#paint8_linear_1_4785)"></path><path d="M51.9578 55.8831C52.5682 55.8831 53.063 55.3882 53.063 54.7778C53.063 54.1674 52.5682 53.6726 51.9578 53.6726C51.3474 53.6726 50.8525 54.1674 50.8525 54.7778C50.8525 55.3882 51.3474 55.8831 51.9578 55.8831Z" fill="url(#paint9_linear_1_4785)"></path><path d="M9.12021 26.0747C13.4657 18.9649 20.9476 14.9316 28.6739 14.7635C20.6183 14.6092 12.7008 18.6768 8.17875 26.0747C3.09934 34.3841 1.31589 58.5825 26.6152 64.3006C27.5575 64.4713 28.5024 64.6025 29.449 64.6891C2.16646 59.7751 3.91733 34.5864 9.12021 26.0747Z" fill="url(#paint10_linear_1_4785)"></path><defs><linearGradient id="paint0_linear_1_4785" x1="7.09498e-05" y1="32.4155" x2="61.7856" y2="32.4155" gradientUnits="userSpaceOnUse"><stop stop-color="#FA71CD"></stop><stop offset="1" stop-color="#C471F5"></stop></linearGradient><linearGradient id="paint1_linear_1_4785" x1="30.8289" y1="22.8689" x2="31.4574" y2="57.3256" gradientUnits="userSpaceOnUse"><stop offset="0.11" stop-color="#666666"></stop><stop offset="0.29" stop-color="#7C7C7C" stop-opacity="0.85"></stop><stop offset="0.63" stop-color="#B6B6B6" stop-opacity="0.47"></stop><stop offset="1" stop-color="white" stop-opacity="0"></stop></linearGradient><linearGradient id="paint2_linear_1_4785" x1="33.8342" y1="11.1339" x2="25.3088" y2="50.9178" gradientUnits="userSpaceOnUse"><stop stop-color="#764BA2"></stop><stop offset="1" stop-color="#667EEA"></stop></linearGradient><linearGradient id="paint3_linear_1_4785" x1="47.5248" y1="23.3823" x2="15.2074" y2="37.8437" gradientUnits="userSpaceOnUse"><stop offset="0.11" stop-color="#666666"></stop><stop offset="0.29" stop-color="#7C7C7C" stop-opacity="0.85"></stop><stop offset="0.63" stop-color="#B6B6B6" stop-opacity="0.47"></stop><stop offset="1" stop-color="white" stop-opacity="0"></stop></linearGradient><linearGradient id="paint4_linear_1_4785" x1="0.00300988" y1="16.7734" x2="61.7834" y2="16.7734" gradientUnits="userSpaceOnUse"><stop stop-color="#4FACFE"></stop><stop offset="1" stop-color="#00F2FE"></stop></linearGradient><linearGradient id="paint5_linear_1_4785" x1="0.00650274" y1="21.3119" x2="61.7817" y2="21.3119" gradientUnits="userSpaceOnUse"><stop stop-color="#00EDFF"></stop><stop offset="1" stop-color="#00F2FE" stop-opacity="0"></stop></linearGradient><linearGradient id="paint6_linear_1_4785" x1="43.1034" y1="58.2292" x2="41.9176" y2="63.6233" gradientUnits="userSpaceOnUse"><stop stop-color="#FA71CD"></stop><stop offset="1" stop-color="#C471F5"></stop></linearGradient><linearGradient id="paint7_linear_1_4785" x1="17.69" y1="49.9568" x2="36.8956" y2="52.8506" gradientUnits="userSpaceOnUse"><stop stop-color="#FF99F5"></stop><stop offset="0.99" stop-color="#C471F5" stop-opacity="0"></stop></linearGradient><linearGradient id="paint8_linear_1_4785" x1="48.3303" y1="55.8096" x2="47.8561" y2="59.4845" gradientUnits="userSpaceOnUse"><stop stop-color="#FA71CD"></stop><stop offset="1" stop-color="#C471F5"></stop></linearGradient><linearGradient id="paint9_linear_1_4785" x1="52.1498" y1="53.7926" x2="51.6757" y2="56.2226" gradientUnits="userSpaceOnUse"><stop stop-color="#FA71CD"></stop><stop offset="1" stop-color="#C471F5"></stop></linearGradient><linearGradient id="paint10_linear_1_4785" x1="15.9316" y1="55.7795" x2="24.5454" y2="18.7266" gradientUnits="userSpaceOnUse"><stop stop-color="#90A8FC"></stop><stop offset="1" stop-color="#667EEA" stop-opacity="0"></stop></linearGradient></defs></svg>